<svg width="131" height="190" viewBox="0 0 131 190" fill="none" xmlns="http://www.w3.org/2000/svg">
<rect width="131" height="190" rx="32" fill="white"/>
<path fill-rule="evenodd" clip-rule="evenodd" d="M65.25 94.5C83.6135 94.5 98.5 79.6135 98.5 61.25C98.5 42.8865 83.6135 28 65.25 28C46.8865 28 32 42.8865 32 61.25C32 79.6135 46.8865 94.5 65.25 94.5ZM65.2502 78.5855C74.8243 78.5855 82.5856 70.8242 82.5856 61.2501C82.5856 51.676 74.8243 43.9146 65.2502 43.9146C55.6761 43.9146 47.9147 51.676 47.9147 61.2501C47.9147 70.8242 55.6761 78.5855 65.2502 78.5855Z" fill="#C0C0C0"/>
<path fill-rule="evenodd" clip-rule="evenodd" d="M65.25 161C83.6135 161 98.5 146.113 98.5 127.75C98.5 109.387 83.6135 94.5 65.25 94.5C46.8865 94.5 32 109.387 32 127.75C32 146.113 46.8865 161 65.25 161ZM65.2502 145.086C74.8243 145.086 82.5856 137.324 82.5856 127.75C82.5856 118.176 74.8243 110.415 65.2502 110.415C55.6761 110.415 47.9147 118.176 47.9147 127.75C47.9147 137.324 55.6761 145.086 65.2502 145.086Z" fill="#BDF506"/>
</svg>
