<svg width="160" height="190" viewBox="0 0 160 190" fill="none" xmlns="http://www.w3.org/2000/svg">
<rect width="160" height="190" rx="32" fill="#F8F6F0"/>
<path d="M77.0211 59.9999C77.4413 56.4732 82.5587 56.4732 82.9789 59.9999L83.3815 63.3787C83.7251 66.2621 87.556 67.0241 88.9768 64.4917L90.6418 61.5242C92.3796 58.4267 97.1075 60.385 96.1461 63.8041L95.2251 67.0798C94.4391 69.8752 97.6867 72.0452 99.9685 70.2493L102.642 68.1448C105.433 65.9482 109.052 69.5667 106.855 72.3576L104.751 75.0315C102.955 77.3133 105.125 80.5609 107.92 79.7749L111.196 78.8539C114.615 77.8925 116.573 82.6204 113.476 84.3582L110.508 86.0232C107.976 87.444 108.738 91.2749 111.621 91.6185L115 92.0211C118.527 92.4413 118.527 97.5587 115 97.9789L111.621 98.3815C108.738 98.7251 107.976 102.556 110.508 103.977L113.476 105.642C116.573 107.38 114.615 112.107 111.196 111.146L107.92 110.225C105.125 109.439 102.955 112.687 104.751 114.968L106.855 117.642C109.052 120.433 105.433 124.052 102.642 121.855L99.9685 119.751C97.6867 117.955 94.4391 120.125 95.2251 122.92L96.1461 126.196C97.1075 129.615 92.3796 131.573 90.6418 128.476L88.9768 125.508C87.556 122.976 83.7251 123.738 83.3815 126.621L82.9789 130C82.5587 133.527 77.4413 133.527 77.0211 130L76.6185 126.621C76.2749 123.738 72.444 122.976 71.0232 125.508L69.3582 128.476C67.6204 131.573 62.8925 129.615 63.8539 126.196L64.7749 122.92C65.5609 120.125 62.3133 117.955 60.0315 119.751L57.3576 121.855C54.5667 124.052 50.9482 120.433 53.1448 117.642L55.2493 114.968C57.0452 112.687 54.8752 109.439 52.0798 110.225L48.8041 111.146C45.385 112.107 43.4267 107.38 46.5242 105.642L49.4917 103.977C52.0241 102.556 51.2621 98.7251 48.3787 98.3815L44.9999 97.9789C41.4732 97.5587 41.4732 92.4413 44.9999 92.0211L48.3787 91.6185C51.2621 91.2749 52.0241 87.444 49.4917 86.0232L46.5242 84.3582C43.4267 82.6204 45.3851 77.8925 48.8041 78.8539L52.0798 79.7749C54.8752 80.5609 57.0452 77.3133 55.2493 75.0315L53.1448 72.3576C50.9482 69.5667 54.5667 65.9482 57.3576 68.1448L60.0315 70.2493C62.3133 72.0452 65.5609 69.8752 64.7749 67.0798L63.8539 63.8041C62.8925 60.3851 67.6204 58.4267 69.3582 61.5242L71.0232 64.4917C72.444 67.0241 76.2749 66.2621 76.6185 63.3787L77.0211 59.9999Z" fill="#BDF506"/>
</svg>
