<svg width="180" height="180" viewBox="0 0 180 180" fill="none" xmlns="http://www.w3.org/2000/svg">
<circle cx="90" cy="90" r="90" fill="#BDF506"/>
<path d="M66 87.0002C64.3431 87.0002 63 88.3434 63 90.0002C63 91.6571 64.3431 93.0002 66 93.0002V87.0002ZM116.121 92.1216C117.293 90.95 117.293 89.0505 116.121 87.8789L97.0294 68.787C95.8579 67.6155 93.9584 67.6155 92.7868 68.787C91.6152 69.9586 91.6152 71.8581 92.7868 73.0297L109.757 90.0002L92.7868 106.971C91.6152 108.142 91.6152 110.042 92.7868 111.213C93.9584 112.385 95.8579 112.385 97.0294 111.213L116.121 92.1216ZM66 93.0002H114V87.0002H66V93.0002Z" fill="#222222"/>
</svg>
