<svg width="180" height="180" viewBox="0 0 180 180" fill="none" xmlns="http://www.w3.org/2000/svg">
<circle cx="90" cy="90" r="90" fill="white"/>
<path d="M70.8787 104.879C69.7071 106.05 69.7071 107.95 70.8787 109.121C72.0503 110.293 73.9497 110.293 75.1213 109.121L70.8787 104.879ZM109.941 73.0589C109.941 71.402 108.598 70.0589 106.941 70.0589L79.9411 70.0589C78.2843 70.0589 76.9411 71.402 76.9411 73.0589C76.9411 74.7157 78.2843 76.0589 79.9411 76.0589H103.941V100.059C103.941 101.716 105.284 103.059 106.941 103.059C108.598 103.059 109.941 101.716 109.941 100.059L109.941 73.0589ZM75.1213 109.121L109.062 75.1802L104.82 70.9376L70.8787 104.879L75.1213 109.121Z" fill="#222222"/>
</svg>
