<svg width="329" height="347" viewBox="0 0 329 347" fill="none" xmlns="http://www.w3.org/2000/svg">
<path fill-rule="evenodd" clip-rule="evenodd" d="M199.132 36.0746C199.132 16.1512 215.283 0 235.206 0C255.13 0 271.281 16.1511 271.281 36.0746V113.986C271.281 98.0477 284.202 85.1268 300.14 85.1268C316.079 85.1268 329 98.0477 329 113.986V243.113C329 259.052 316.079 271.973 300.14 271.973C284.202 271.973 271.281 259.052 271.281 243.113V310.925C271.281 330.849 255.13 347 235.206 347C215.283 347 199.132 330.849 199.132 310.925V284.153C197.769 302.931 182.103 317.743 162.977 317.743C142.956 317.743 126.726 301.513 126.726 281.492V300.681C126.726 320.534 110.632 336.628 90.7796 336.628C70.927 336.628 54.8333 320.534 54.8333 300.681V237.342C54.8333 252.484 42.5585 264.759 27.4167 264.759C12.2749 264.759 0 252.484 0 237.342V142.843C0 127.701 12.2749 115.426 27.4167 115.426C42.5585 115.426 54.8333 127.701 54.8333 142.843V66.7588C54.8333 46.9062 70.927 30.8125 90.7796 30.8125C110.632 30.8125 126.726 46.9062 126.726 66.7588V83.5116C126.726 63.4908 142.956 47.2607 162.977 47.2607C182.103 47.2607 197.769 62.0722 199.132 80.8505V36.0746ZM49.0614 318.143C49.0614 330.096 39.3707 339.786 27.4167 339.786C15.4626 339.786 5.77193 330.096 5.77193 318.143C5.77193 306.191 15.4626 296.501 27.4167 296.501C39.3707 296.501 49.0614 306.191 49.0614 318.143ZM300.14 54.8274C312.094 54.8274 321.785 45.1378 321.785 33.185C321.785 21.2323 312.094 11.5426 300.14 11.5426C288.186 11.5426 278.496 21.2323 278.496 33.185C278.496 45.1378 288.186 54.8274 300.14 54.8274Z" fill="white"/>
</svg>
