<svg width="83" height="104" viewBox="0 0 83 104" fill="none" xmlns="http://www.w3.org/2000/svg">
<path fill-rule="evenodd" clip-rule="evenodd" d="M48.3982 70.0329C51.5296 75.6974 48.6503 82.8908 42.1787 82.9946C41.9529 82.9982 41.7267 83 41.5 83C18.5802 83 0 64.4198 0 41.5C0 18.5802 18.5802 0 41.5 0C64.4198 0 83 18.5802 83 41.5C83 46.7633 82.0202 51.7978 80.233 56.4309C77.4965 63.5251 68.3156 62.6178 64.637 55.9633V55.9633C62.9161 52.8503 62.9723 49.1292 63.6214 45.6319C63.87 44.2925 64 42.9114 64 41.5C64 29.0736 53.9264 19 41.5 19C29.0736 19 19 29.0736 19 41.5C19 53.9264 29.0736 64 41.5 64V64C43.5632 64 45.5833 64.9409 46.5814 66.7465L48.3982 70.0329Z" fill="#222222"/>
<rect width="36" height="16" rx="8" transform="matrix(0.637525 0.770429 0.770429 -0.637525 44 60.2004)" fill="#2EA665"/>
<circle cx="8" cy="8" r="8" transform="matrix(0.637525 0.770429 0.770429 -0.637525 56.7505 75.6089)" fill="#BDF506"/>
<path d="M17.776 101H14.344C13.9013 101 13.4907 100.936 13.112 100.808C12.7387 100.675 12.416 100.483 12.144 100.232C11.872 99.9813 11.6587 99.6773 11.504 99.32C11.3493 98.9627 11.272 98.5547 11.272 98.096C11.272 97.6693 11.3493 97.2773 11.504 96.92C11.664 96.5627 11.88 96.256 12.152 96C12.424 95.744 12.744 95.5467 13.112 95.408C13.48 95.264 13.8747 95.192 14.296 95.192C14.7173 95.192 15.112 95.264 15.48 95.408C15.848 95.552 16.168 95.752 16.44 96.008C16.712 96.264 16.9253 96.5707 17.08 96.928C17.24 97.28 17.32 97.6693 17.32 98.096C17.32 98.2987 17.296 98.496 17.248 98.688C17.2053 98.88 17.1387 99.0613 17.048 99.232C16.9573 99.4027 16.84 99.5573 16.696 99.696C16.552 99.8293 16.384 99.9387 16.192 100.024V100.04H17.776V101ZM12.568 98.096C12.568 98.3413 12.6133 98.5707 12.704 98.784C12.7947 98.9973 12.9173 99.184 13.072 99.344C13.232 99.4987 13.416 99.6213 13.624 99.712C13.832 99.8027 14.056 99.848 14.296 99.848C14.536 99.848 14.76 99.8027 14.968 99.712C15.176 99.6213 15.3573 99.4987 15.512 99.344C15.672 99.184 15.7973 98.9973 15.888 98.784C15.9787 98.5707 16.024 98.3413 16.024 98.096C16.024 97.8507 15.9787 97.6213 15.888 97.408C15.7973 97.1947 15.672 97.0107 15.512 96.856C15.3573 96.696 15.176 96.5707 14.968 96.48C14.76 96.3893 14.536 96.344 14.296 96.344C14.056 96.344 13.832 96.3893 13.624 96.48C13.416 96.5707 13.232 96.696 13.072 96.856C12.9173 97.0107 12.7947 97.1947 12.704 97.408C12.6133 97.6213 12.568 97.8507 12.568 98.096ZM25.1645 98.816C25.1645 99.152 25.1138 99.4613 25.0125 99.744C24.9112 100.027 24.7592 100.272 24.5565 100.48C24.3592 100.688 24.1112 100.851 23.8125 100.968C23.5138 101.085 23.1698 101.144 22.7805 101.144C22.3858 101.144 22.0392 101.085 21.7405 100.968C21.4418 100.851 21.1912 100.688 20.9885 100.48C20.7912 100.272 20.6418 100.027 20.5405 99.744C20.4392 99.4613 20.3885 99.152 20.3885 98.816V95.336H21.6365V98.768C21.6365 98.944 21.6632 99.1067 21.7165 99.256C21.7752 99.4053 21.8552 99.536 21.9565 99.648C22.0578 99.7547 22.1778 99.84 22.3165 99.904C22.4605 99.9627 22.6152 99.992 22.7805 99.992C22.9458 99.992 23.0978 99.9627 23.2365 99.904C23.3752 99.84 23.4952 99.7547 23.5965 99.648C23.6978 99.536 23.7752 99.4053 23.8285 99.256C23.8872 99.1067 23.9165 98.944 23.9165 98.768V95.336H25.1645V98.816ZM28.3022 95.336H29.5502V101H28.3022V95.336ZM36.3894 96.808C36.2667 96.6587 36.1147 96.544 35.9334 96.464C35.7574 96.384 35.552 96.344 35.3174 96.344C35.0827 96.344 34.864 96.3893 34.6614 96.48C34.464 96.5707 34.2907 96.6987 34.1414 96.864C33.9974 97.024 33.8827 97.216 33.7974 97.44C33.7174 97.664 33.6774 97.9067 33.6774 98.168C33.6774 98.4347 33.7174 98.68 33.7974 98.904C33.8827 99.1227 33.9974 99.3147 34.1414 99.48C34.2854 99.64 34.4534 99.7653 34.6454 99.856C34.8427 99.9467 35.0534 99.992 35.2774 99.992C35.5334 99.992 35.76 99.9387 35.9574 99.832C36.1547 99.7253 36.3174 99.576 36.4454 99.384L37.4854 100.16C37.2454 100.496 36.9414 100.744 36.5734 100.904C36.2054 101.064 35.8267 101.144 35.4374 101.144C34.9947 101.144 34.5867 101.075 34.2134 100.936C33.84 100.797 33.5174 100.6 33.2454 100.344C32.9734 100.083 32.76 99.768 32.6054 99.4C32.456 99.032 32.3814 98.6213 32.3814 98.168C32.3814 97.7147 32.456 97.304 32.6054 96.936C32.76 96.568 32.9734 96.256 33.2454 96C33.5174 95.7387 33.84 95.5387 34.2134 95.4C34.5867 95.2613 34.9947 95.192 35.4374 95.192C35.5974 95.192 35.7627 95.208 35.9334 95.24C36.1094 95.2667 36.28 95.312 36.4454 95.376C36.616 95.44 36.7787 95.5253 36.9334 95.632C37.088 95.7387 37.2267 95.8693 37.3494 96.024L36.3894 96.808ZM40.2099 95.336H41.4579V97.688L43.6579 95.336H45.2899L42.7699 97.968L45.5059 101H43.7619L41.4579 98.312V101H40.2099V95.336ZM51.6394 96.808C51.5167 96.6587 51.3647 96.544 51.1834 96.464C51.0074 96.384 50.802 96.344 50.5674 96.344C50.3327 96.344 50.114 96.3893 49.9114 96.48C49.714 96.5707 49.5407 96.6987 49.3914 96.864C49.2474 97.024 49.1327 97.216 49.0474 97.44C48.9674 97.664 48.9274 97.9067 48.9274 98.168C48.9274 98.4347 48.9674 98.68 49.0474 98.904C49.1327 99.1227 49.2474 99.3147 49.3914 99.48C49.5354 99.64 49.7034 99.7653 49.8954 99.856C50.0927 99.9467 50.3034 99.992 50.5274 99.992C50.7834 99.992 51.01 99.9387 51.2074 99.832C51.4047 99.7253 51.5674 99.576 51.6954 99.384L52.7354 100.16C52.4954 100.496 52.1914 100.744 51.8234 100.904C51.4554 101.064 51.0767 101.144 50.6874 101.144C50.2447 101.144 49.8367 101.075 49.4634 100.936C49.09 100.797 48.7674 100.6 48.4954 100.344C48.2234 100.083 48.01 99.768 47.8554 99.4C47.706 99.032 47.6314 98.6213 47.6314 98.168C47.6314 97.7147 47.706 97.304 47.8554 96.936C48.01 96.568 48.2234 96.256 48.4954 96C48.7674 95.7387 49.09 95.5387 49.4634 95.4C49.8367 95.2613 50.2447 95.192 50.6874 95.192C50.8474 95.192 51.0127 95.208 51.1834 95.24C51.3594 95.2667 51.53 95.312 51.6954 95.376C51.866 95.44 52.0287 95.5253 52.1834 95.632C52.338 95.7387 52.4767 95.8693 52.5994 96.024L51.6394 96.808ZM57.2759 95.336H58.3079L60.7719 101H59.3639L58.8759 99.8H56.6759L56.2039 101H54.8279L57.2759 95.336ZM57.7559 96.984L57.0679 98.744H58.4519L57.7559 96.984ZM63.3416 95.336H65.5336C65.8216 95.336 66.0936 95.3653 66.3496 95.424C66.611 95.4773 66.8376 95.5707 67.0296 95.704C67.227 95.832 67.3816 96.008 67.4936 96.232C67.611 96.4507 67.6696 96.7253 67.6696 97.056C67.6696 97.456 67.5656 97.7973 67.3576 98.08C67.1496 98.3573 66.8456 98.5333 66.4456 98.608L67.8856 101H66.3896L65.2056 98.736H64.5896V101H63.3416V95.336ZM64.5896 97.68H65.3256C65.4376 97.68 65.555 97.6773 65.6776 97.672C65.8056 97.6613 65.9203 97.6373 66.0216 97.6C66.123 97.5573 66.2056 97.4933 66.2696 97.408C66.339 97.3227 66.3736 97.2027 66.3736 97.048C66.3736 96.904 66.3443 96.7893 66.2856 96.704C66.227 96.6187 66.1523 96.5547 66.0616 96.512C65.971 96.464 65.867 96.432 65.7496 96.416C65.6323 96.4 65.5176 96.392 65.4056 96.392H64.5896V97.68ZM70.5291 95.336H72.4011C72.8545 95.336 73.2838 95.3867 73.6891 95.488C74.0998 95.5893 74.4571 95.7547 74.7611 95.984C75.0651 96.208 75.3051 96.5013 75.4811 96.864C75.6625 97.2267 75.7531 97.6667 75.7531 98.184C75.7531 98.6427 75.6651 99.048 75.4891 99.4C75.3185 99.7467 75.0865 100.04 74.7931 100.28C74.4998 100.515 74.1611 100.693 73.7771 100.816C73.3931 100.939 72.9905 101 72.5691 101H70.5291V95.336ZM71.7771 99.848H72.4251C72.7131 99.848 72.9798 99.8187 73.2251 99.76C73.4758 99.7013 73.6918 99.6053 73.8731 99.472C74.0545 99.3333 74.1958 99.1547 74.2971 98.936C74.4038 98.712 74.4571 98.44 74.4571 98.12C74.4571 97.8427 74.4038 97.6027 74.2971 97.4C74.1958 97.192 74.0571 97.0213 73.8811 96.888C73.7051 96.7547 73.4971 96.656 73.2571 96.592C73.0225 96.5227 72.7745 96.488 72.5131 96.488H71.7771V99.848Z" fill="#222222"/>
</svg>
