<svg width="160" height="160" viewBox="0 0 160 160" fill="none" xmlns="http://www.w3.org/2000/svg">
<circle cx="80" cy="80" r="80" fill="#F8F6F0"/>
<path d="M34.908 50C34.908 48.8954 35.8034 48 36.908 48H111.436C112.541 48 113.436 48.8954 113.436 50V92.172H34.908V50Z" fill="#2EA665"/>
<path d="M34.9087 92.1721H113.437L118.451 110.083C118.808 111.358 117.85 112.622 116.525 112.622H32.5369C31.2435 112.622 30.2902 111.413 30.5921 110.155L34.9087 92.1721Z" fill="#2EA665"/>
<rect x="37.362" y="51.272" width="73.62" height="37.628" rx="1" fill="white"/>
<path d="M79.6899 66.697V64.0807C79.6899 61.5243 77.6175 59.4519 75.0611 59.4519V59.4519C72.5046 59.4519 70.4322 61.5243 70.4322 64.0807V66.697" stroke="#2EA665" stroke-width="3"/>
<rect x="66.8099" y="66.4114" width="16.36" height="15.581" rx="2" fill="#2EA665"/>
<path fill-rule="evenodd" clip-rule="evenodd" d="M75.9533 74.7264C76.5412 74.3912 76.9376 73.7585 76.9376 73.0333C76.9376 71.9577 76.0657 71.0857 74.99 71.0857C73.9144 71.0857 73.0424 71.9577 73.0424 73.0333C73.0424 73.7585 73.4387 74.3911 74.0265 74.7263L73.5988 78.3197H76.3811L75.9533 74.7264Z" fill="white"/>
<path fill-rule="evenodd" clip-rule="evenodd" d="M128.692 78.8909C131.713 78.3311 134 75.6827 134 72.5C134 68.9101 131.09 66 127.5 66C123.91 66 121 68.9101 121 72.5C121 75.4378 122.949 77.9204 125.625 78.7254V90.8629H127.159V90.8635H133.294V87.796H128.692V84.7282H133.294V81.6608H128.692V78.8909ZM131 72.5C131 74.433 129.433 76 127.5 76C125.567 76 124 74.433 124 72.5C124 70.567 125.567 69 127.5 69C129.433 69 131 70.567 131 72.5Z" fill="#2EA665"/>
</svg>
