<svg width="160" height="161" viewBox="0 0 160 161" fill="none" xmlns="http://www.w3.org/2000/svg">
<circle cx="80" cy="80.0591" r="80" fill="#F8F6F0"/>
<path d="M92 56.0591V49.5591C92 43.2078 86.8513 38.0591 80.5 38.0591V38.0591C74.1487 38.0591 69 43.2078 69 49.5591V56.0591" stroke="#2EA665" stroke-width="4"/>
<rect x="60.5" y="55.8494" width="39.6452" height="37.7097" rx="1.5" fill="#2EA665" stroke="#2EA665"/>
<mask id="path-4-inside-1_13_543" fill="white">
<path fill-rule="evenodd" clip-rule="evenodd" d="M82.7161 76.0073C84.1766 75.1744 85.1613 73.6028 85.1613 71.8011C85.1613 69.1288 82.9949 66.9624 80.3226 66.9624C77.6502 66.9624 75.4839 69.1288 75.4839 71.8011C75.4839 73.6028 76.4686 75.1745 77.9291 76.0074L76.8664 84.9345H83.7788L82.7161 76.0073Z"/>
</mask>
<path fill-rule="evenodd" clip-rule="evenodd" d="M82.7161 76.0073C84.1766 75.1744 85.1613 73.6028 85.1613 71.8011C85.1613 69.1288 82.9949 66.9624 80.3226 66.9624C77.6502 66.9624 75.4839 69.1288 75.4839 71.8011C75.4839 73.6028 76.4686 75.1745 77.9291 76.0074L76.8664 84.9345H83.7788L82.7161 76.0073Z" fill="white"/>
<path d="M82.7161 76.0073L82.2207 75.1387L81.6447 75.4671L81.7231 76.1255L82.7161 76.0073ZM77.9291 76.0074L78.9221 76.1256L79.0005 75.4672L78.4245 75.1387L77.9291 76.0074ZM76.8664 84.9345L75.8734 84.8163L75.7403 85.9345H76.8664V84.9345ZM83.7788 84.9345V85.9345H84.9049L84.7718 84.8163L83.7788 84.9345ZM84.1613 71.8011C84.1613 73.2291 83.382 74.4764 82.2207 75.1387L83.2115 76.876C84.9712 75.8725 86.1613 73.9764 86.1613 71.8011H84.1613ZM80.3226 67.9624C82.4426 67.9624 84.1613 69.6811 84.1613 71.8011H86.1613C86.1613 68.5765 83.5472 65.9624 80.3226 65.9624V67.9624ZM76.4839 71.8011C76.4839 69.6811 78.2025 67.9624 80.3226 67.9624V65.9624C77.0979 65.9624 74.4839 68.5765 74.4839 71.8011H76.4839ZM78.4245 75.1387C77.2632 74.4765 76.4839 73.2292 76.4839 71.8011H74.4839C74.4839 73.9764 75.674 75.8725 77.4338 76.8761L78.4245 75.1387ZM77.8594 85.0527L78.9221 76.1256L76.9362 75.8892L75.8734 84.8163L77.8594 85.0527ZM83.7788 83.9345H76.8664V85.9345H83.7788V83.9345ZM81.7231 76.1255L82.7858 85.0527L84.7718 84.8163L83.7091 75.8891L81.7231 76.1255Z" fill="#2EA665" mask="url(#path-4-inside-1_13_543)"/>
<rect x="37.5" y="98.5591" width="85" height="24" rx="3.5" fill="#2EA665"/>
<rect x="37.5" y="98.5591" width="85" height="24" rx="3.5" stroke="#2EA665"/>
<path d="M52.42 110.739L55.108 111.691C55.444 111.817 55.486 111.831 55.584 111.929C55.682 112.041 55.738 112.195 55.738 112.377C55.738 112.881 55.374 113.245 54.884 113.245C54.674 113.245 54.59 113.203 54.324 112.979L52.252 111.173L52.728 113.861C52.756 113.987 52.756 114.057 52.756 114.183C52.756 114.631 52.448 114.897 51.93 114.897C51.706 114.897 51.51 114.827 51.37 114.701C51.23 114.575 51.174 114.421 51.174 114.141C51.174 114.029 51.188 113.931 51.202 113.861L51.762 111.173L49.62 112.979C49.382 113.189 49.27 113.231 49.06 113.231C48.626 113.231 48.262 112.881 48.262 112.433C48.262 112.055 48.416 111.859 48.878 111.691L51.524 110.739L48.878 109.787C48.416 109.619 48.262 109.423 48.262 109.045C48.262 108.597 48.612 108.247 49.06 108.247C49.27 108.247 49.382 108.289 49.62 108.499L51.762 110.305L51.202 107.617C51.188 107.547 51.174 107.449 51.174 107.337C51.174 106.833 51.426 106.581 51.944 106.581C52.462 106.581 52.756 106.847 52.756 107.337C52.756 107.407 52.742 107.519 52.728 107.617L52.252 110.305L54.324 108.499C54.59 108.275 54.674 108.233 54.884 108.233C55.374 108.233 55.738 108.597 55.738 109.101C55.738 109.283 55.682 109.437 55.584 109.549C55.486 109.647 55.444 109.661 55.108 109.787L52.42 110.739ZM66.42 110.739L69.108 111.691C69.444 111.817 69.486 111.831 69.584 111.929C69.682 112.041 69.738 112.195 69.738 112.377C69.738 112.881 69.374 113.245 68.884 113.245C68.674 113.245 68.59 113.203 68.324 112.979L66.252 111.173L66.728 113.861C66.756 113.987 66.756 114.057 66.756 114.183C66.756 114.631 66.448 114.897 65.93 114.897C65.706 114.897 65.51 114.827 65.37 114.701C65.23 114.575 65.174 114.421 65.174 114.141C65.174 114.029 65.188 113.931 65.202 113.861L65.762 111.173L63.62 112.979C63.382 113.189 63.27 113.231 63.06 113.231C62.626 113.231 62.262 112.881 62.262 112.433C62.262 112.055 62.416 111.859 62.878 111.691L65.524 110.739L62.878 109.787C62.416 109.619 62.262 109.423 62.262 109.045C62.262 108.597 62.612 108.247 63.06 108.247C63.27 108.247 63.382 108.289 63.62 108.499L65.762 110.305L65.202 107.617C65.188 107.547 65.174 107.449 65.174 107.337C65.174 106.833 65.426 106.581 65.944 106.581C66.462 106.581 66.756 106.847 66.756 107.337C66.756 107.407 66.742 107.519 66.728 107.617L66.252 110.305L68.324 108.499C68.59 108.275 68.674 108.233 68.884 108.233C69.374 108.233 69.738 108.597 69.738 109.101C69.738 109.283 69.682 109.437 69.584 109.549C69.486 109.647 69.444 109.661 69.108 109.787L66.42 110.739ZM80.42 110.739L83.108 111.691C83.444 111.817 83.486 111.831 83.584 111.929C83.682 112.041 83.738 112.195 83.738 112.377C83.738 112.881 83.374 113.245 82.884 113.245C82.674 113.245 82.59 113.203 82.324 112.979L80.252 111.173L80.728 113.861C80.756 113.987 80.756 114.057 80.756 114.183C80.756 114.631 80.448 114.897 79.93 114.897C79.706 114.897 79.51 114.827 79.37 114.701C79.23 114.575 79.174 114.421 79.174 114.141C79.174 114.029 79.188 113.931 79.202 113.861L79.762 111.173L77.62 112.979C77.382 113.189 77.27 113.231 77.06 113.231C76.626 113.231 76.262 112.881 76.262 112.433C76.262 112.055 76.416 111.859 76.878 111.691L79.524 110.739L76.878 109.787C76.416 109.619 76.262 109.423 76.262 109.045C76.262 108.597 76.612 108.247 77.06 108.247C77.27 108.247 77.382 108.289 77.62 108.499L79.762 110.305L79.202 107.617C79.188 107.547 79.174 107.449 79.174 107.337C79.174 106.833 79.426 106.581 79.944 106.581C80.462 106.581 80.756 106.847 80.756 107.337C80.756 107.407 80.742 107.519 80.728 107.617L80.252 110.305L82.324 108.499C82.59 108.275 82.674 108.233 82.884 108.233C83.374 108.233 83.738 108.597 83.738 109.101C83.738 109.283 83.682 109.437 83.584 109.549C83.486 109.647 83.444 109.661 83.108 109.787L80.42 110.739ZM94.42 110.739L97.108 111.691C97.444 111.817 97.486 111.831 97.584 111.929C97.682 112.041 97.738 112.195 97.738 112.377C97.738 112.881 97.374 113.245 96.884 113.245C96.674 113.245 96.59 113.203 96.324 112.979L94.252 111.173L94.728 113.861C94.756 113.987 94.756 114.057 94.756 114.183C94.756 114.631 94.448 114.897 93.93 114.897C93.706 114.897 93.51 114.827 93.37 114.701C93.23 114.575 93.174 114.421 93.174 114.141C93.174 114.029 93.188 113.931 93.202 113.861L93.762 111.173L91.62 112.979C91.382 113.189 91.27 113.231 91.06 113.231C90.626 113.231 90.262 112.881 90.262 112.433C90.262 112.055 90.416 111.859 90.878 111.691L93.524 110.739L90.878 109.787C90.416 109.619 90.262 109.423 90.262 109.045C90.262 108.597 90.612 108.247 91.06 108.247C91.27 108.247 91.382 108.289 91.62 108.499L93.762 110.305L93.202 107.617C93.188 107.547 93.174 107.449 93.174 107.337C93.174 106.833 93.426 106.581 93.944 106.581C94.462 106.581 94.756 106.847 94.756 107.337C94.756 107.407 94.742 107.519 94.728 107.617L94.252 110.305L96.324 108.499C96.59 108.275 96.674 108.233 96.884 108.233C97.374 108.233 97.738 108.597 97.738 109.101C97.738 109.283 97.682 109.437 97.584 109.549C97.486 109.647 97.444 109.661 97.108 109.787L94.42 110.739ZM108.42 110.739L111.108 111.691C111.444 111.817 111.486 111.831 111.584 111.929C111.682 112.041 111.738 112.195 111.738 112.377C111.738 112.881 111.374 113.245 110.884 113.245C110.674 113.245 110.59 113.203 110.324 112.979L108.252 111.173L108.728 113.861C108.756 113.987 108.756 114.057 108.756 114.183C108.756 114.631 108.448 114.897 107.93 114.897C107.706 114.897 107.51 114.827 107.37 114.701C107.23 114.575 107.174 114.421 107.174 114.141C107.174 114.029 107.188 113.931 107.202 113.861L107.762 111.173L105.62 112.979C105.382 113.189 105.27 113.231 105.06 113.231C104.626 113.231 104.262 112.881 104.262 112.433C104.262 112.055 104.416 111.859 104.878 111.691L107.524 110.739L104.878 109.787C104.416 109.619 104.262 109.423 104.262 109.045C104.262 108.597 104.612 108.247 105.06 108.247C105.27 108.247 105.382 108.289 105.62 108.499L107.762 110.305L107.202 107.617C107.188 107.547 107.174 107.449 107.174 107.337C107.174 106.833 107.426 106.581 107.944 106.581C108.462 106.581 108.756 106.847 108.756 107.337C108.756 107.407 108.742 107.519 108.728 107.617L108.252 110.305L110.324 108.499C110.59 108.275 110.674 108.233 110.884 108.233C111.374 108.233 111.738 108.597 111.738 109.101C111.738 109.283 111.682 109.437 111.584 109.549C111.486 109.647 111.444 109.661 111.108 109.787L108.42 110.739Z" fill="white"/>
</svg>
